<svg width="19" height="23" viewBox="0 0 19 23" fill="none" xmlns="http://www.w3.org/2000/svg">
<path d="M2.23954 0C1.00268 0 0 1.00268 0 2.23954V17.4106C0 17.8495 0.355789 18.2053 0.794677 18.2053C1.23356 18.2053 1.58935 17.8495 1.58935 17.4106V2.23954C1.58935 1.88045 1.88045 1.58935 2.23954 1.58935H14.0152C14.4541 1.58935 14.8099 1.23356 14.8099 0.794677C14.8099 0.355789 14.4541 0 14.0152 0H2.23954Z" fill="#78B2D3"/>
<path fill-rule="evenodd" clip-rule="evenodd" d="M6.42966 4.04563C5.19279 4.04563 4.19011 5.04831 4.19011 6.28517V20.0114C4.19011 21.2483 5.19279 22.251 6.42966 22.251H16.7605C17.9973 22.251 19 21.2483 19 20.0114V6.28517C19 5.04831 17.9973 4.04563 16.7605 4.04563H6.42966ZM5.77947 6.28517C5.77947 5.92608 6.07057 5.63498 6.42966 5.63498H16.7605C17.1195 5.63498 17.4106 5.92608 17.4106 6.28517V20.0114C17.4106 20.3705 17.1195 20.6616 16.7605 20.6616H6.42966C6.07057 20.6616 5.77947 20.3705 5.77947 20.0114V6.28517Z" fill="#78B2D3"/>
</svg>
