<svg width="297" height="297" viewBox="0 0 297 297" fill="none" xmlns="http://www.w3.org/2000/svg">
<path fill-rule="evenodd" clip-rule="evenodd" d="M3.77916e-05 88.567C-0.00727553 86.5898 1.04731 84.7607 2.76219 83.7765L147.457 0.729847C149.16 -0.247995 151.256 -0.24294 152.955 0.743088L293.919 82.5543C295.622 83.5424 296.666 85.3651 296.658 87.3335C296.65 89.302 295.591 91.1161 293.88 92.0904L150.645 173.674C148.964 174.631 146.904 174.635 145.22 173.685L2.79755 93.3369C1.07544 92.3654 0.00735145 90.5443 3.77916e-05 88.567ZM16.6206 88.5055L147.91 162.572L280.124 87.2665L150.179 11.8503L16.6206 88.5055Z" fill="#717171"/>
<path d="M0.803312 207.841C2.29583 205.195 5.65044 204.26 8.29604 205.753L147.999 284.567L288.522 204.529C291.162 203.025 294.52 203.946 296.023 206.586C297.527 209.225 296.606 212.584 293.966 214.087L150.734 295.668C149.054 296.625 146.994 296.63 145.31 295.679L2.89114 215.334C0.245546 213.841 -0.689208 210.486 0.803312 207.841Z" fill="#717171"/>
<path d="M8.29604 148.753C5.65044 147.26 2.29583 148.195 0.803312 150.841C-0.689208 153.486 0.245546 156.841 2.89114 158.334L145.31 238.679C146.994 239.63 149.054 239.625 150.734 238.668L293.966 157.087C296.606 155.584 297.527 152.225 296.023 149.586C294.52 146.946 291.162 146.025 288.522 147.529L147.999 227.567L8.29604 148.753Z" fill="#717171"/>
</svg>
