<svg width="358" height="258" viewBox="0 0 358 258" fill="none" xmlns="http://www.w3.org/2000/svg">
<circle cx="175" cy="129" r="129" fill="url(#paint0_linear)"/>
<g filter="url(#filter0_d)">
<rect x="140" y="52" width="198" height="162" rx="15" fill="#FDFDFD"/>
</g>
<path d="M140 67C140 58.7157 146.716 52 155 52H323C331.284 52 338 58.7157 338 67V103H140V67Z" fill="#DEE6EC"/>
<rect x="166" y="74" width="97" height="9" rx="4.5" fill="white"/>
<rect x="166" y="148" width="67" height="9" rx="4.5" fill="#DEE6EC"/>
<rect x="166" y="125" width="88" height="9" rx="4.5" fill="#DEE6EC"/>
<circle cx="90.5" cy="31.5" r="19" stroke="#DAE6EF" stroke-width="5"/>
<path d="M46.2637 210.928C47.7982 212.089 47.5 214.477 45.7269 215.225L20.3032 225.953C18.5301 226.701 16.612 225.249 16.8506 223.34L20.2715 195.958C20.51 194.048 22.7264 193.113 24.2609 194.275L46.2637 210.928Z" stroke="#DEE6EC" stroke-width="5"/>
<defs>
<filter id="filter0_d" x="120" y="36" width="238" height="202" filterUnits="userSpaceOnUse" color-interpolation-filters="sRGB">
<feFlood flood-opacity="0" result="BackgroundImageFix"/>
<feColorMatrix in="SourceAlpha" type="matrix" values="0 0 0 0 0 0 0 0 0 0 0 0 0 0 0 0 0 0 127 0"/>
<feOffset dy="4"/>
<feGaussianBlur stdDeviation="10"/>
<feColorMatrix type="matrix" values="0 0 0 0 0 0 0 0 0 0 0 0 0 0 0 0 0 0 0.07 0"/>
<feBlend mode="normal" in2="BackgroundImageFix" result="effect1_dropShadow"/>
<feBlend mode="normal" in="SourceGraphic" in2="effect1_dropShadow" result="shape"/>
</filter>
<linearGradient id="paint0_linear" x1="175" y1="0" x2="175" y2="258" gradientUnits="userSpaceOnUse">
<stop stop-color="#AFCCDF" stop-opacity="0"/>
<stop offset="0.942708" stop-color="#D6E5EF"/>
</linearGradient>
</defs>
</svg>
