<svg width="391" height="450" viewBox="0 0 391 450" fill="none" xmlns="http://www.w3.org/2000/svg">
<path fill-rule="evenodd" clip-rule="evenodd" d="M38.4677 15.9677C26.0413 15.9677 15.9677 26.0413 15.9677 38.4677V391.21C15.9677 403.636 26.0413 413.71 38.4677 413.71H201.515C184.519 394.606 174.194 369.436 174.194 341.855C174.194 282.128 222.612 233.71 282.339 233.71C302.187 233.71 320.786 239.057 336.774 248.388V108.134C336.774 102.298 334.506 96.6897 330.449 92.4939L263.086 22.8274C258.847 18.4433 253.009 15.9677 246.911 15.9677H38.4677ZM352.742 259.762V108.134C352.742 98.1558 348.864 88.5677 341.928 81.3943L274.565 11.7279C267.317 4.23239 257.337 0 246.911 0H38.4677C17.2226 0 0 17.2226 0 38.4677V391.21C0 412.455 17.2225 429.677 38.4677 429.677H219.217C236.98 442.467 258.78 450 282.339 450C342.066 450 390.484 401.582 390.484 341.855C390.484 309.016 375.847 279.596 352.742 259.762ZM339.779 269.758C324.025 257.19 304.059 249.677 282.339 249.677C231.431 249.677 190.161 290.947 190.161 341.855C190.161 392.763 231.431 434.032 282.339 434.032C333.247 434.032 374.516 392.763 374.516 341.855C374.516 312.667 360.95 286.648 339.779 269.758ZM79.8387 102.339C79.8387 97.9293 83.4132 94.3548 87.8226 94.3548H208.306C212.716 94.3548 216.29 97.9293 216.29 102.339C216.29 106.748 212.716 110.323 208.306 110.323H87.8226C83.4132 110.323 79.8387 106.748 79.8387 102.339ZM79.8387 186.532C79.8387 182.123 83.4132 178.548 87.8226 178.548H182.177C186.587 178.548 190.161 182.123 190.161 186.532C190.161 190.942 186.587 194.516 182.177 194.516H87.8226C83.4132 194.516 79.8387 190.942 79.8387 186.532ZM79.8387 275.081C79.8387 270.671 83.4132 267.097 87.8226 267.097H121.21C125.619 267.097 129.194 270.671 129.194 275.081C129.194 279.49 125.619 283.065 121.21 283.065H87.8226C83.4132 283.065 79.8387 279.49 79.8387 275.081ZM245.752 302.5C248.87 299.382 253.925 299.382 257.043 302.5L285.028 330.486L311.301 304.214C314.418 301.096 319.474 301.096 322.591 304.214C325.709 307.331 325.709 312.386 322.591 315.504L296.319 341.777L323.774 369.231C326.892 372.349 326.892 377.404 323.774 380.522C320.656 383.64 315.601 383.64 312.483 380.522L285.028 353.067L255.86 382.236C252.742 385.354 247.687 385.354 244.569 382.236C241.451 379.118 241.451 374.063 244.569 370.945L273.738 341.777L245.752 313.791C242.634 310.673 242.634 305.618 245.752 302.5Z" fill="#838383"/>
</svg>
